<?xml version="1.0" encoding="UTF-8" standalone="no"?>
<svg
   xmlns:dc="http://purl.org/dc/elements/1.1/"
   xmlns:cc="http://creativecommons.org/ns#"
   xmlns:rdf="http://www.w3.org/1999/02/22-rdf-syntax-ns#"
   xmlns:svg="http://www.w3.org/2000/svg"
   xmlns="http://www.w3.org/2000/svg"
   xmlns:sodipodi="http://sodipodi.sourceforge.net/DTD/sodipodi-0.dtd"
   xmlns:inkscape="http://www.inkscape.org/namespaces/inkscape"
   version="1.1"
   viewBox="0 0 300 46.878234"
   id="svg4136"
   inkscape:version="0.91 r13725"
   sodipodi:docname="logo.svg"
   width="300"
   height="46.878235">
  <metadata
     id="metadata4198">
    <rdf:RDF>
      <cc:Work
         rdf:about="">
        <dc:format>image/svg+xml</dc:format>
        <dc:type
           rdf:resource="http://purl.org/dc/dcmitype/StillImage" />
        <dc:title></dc:title>
      </cc:Work>
    </rdf:RDF>
  </metadata>
  <defs
     id="defs4196" />
  <sodipodi:namedview
     pagecolor="#ffffff"
     bordercolor="#666666"
     borderopacity="1"
     objecttolerance="10"
     gridtolerance="10"
     guidetolerance="10"
     inkscape:pageopacity="0"
     inkscape:pageshadow="2"
     inkscape:window-width="1920"
     inkscape:window-height="1017"
     id="namedview4194"
     showgrid="false"
     fit-margin-top="0"
     fit-margin-left="0"
     fit-margin-right="0"
     fit-margin-bottom="0"
     inkscape:zoom="0.80662983"
     inkscape:cx="247.46627"
     inkscape:cy="12.452103"
     inkscape:window-x="-8"
     inkscape:window-y="-8"
     inkscape:window-maximized="1"
     inkscape:current-layer="svg4136" />
  <g
     id="g4233"
     transform="matrix(0.34494653,0,0,0.34494653,-6.760952,-5.2431873)">
    <g
       id="g4202">
      <g
         id="suomifi">
        <path
           d="m 19.6,59 5.6,-7.3 c 2.1,2 5.3,5.1 9.4,5.1 3.4,0 5.5,-2.2 5.5,-5 0,-2.2 -1.1,-3.9 -6.7,-7.1 C 26,40.3 21.6,36.4 21.6,29.6 l 0,-0.1 c 0,-8.3 6,-13.9 14.8,-13.9 4.2,0 9.3,1.5 13.2,5.7 l -5.7,7.2 c -1.8,-1.9 -4.5,-4.2 -7.9,-4.2 -2.8,0 -4.9,1.7 -4.9,4.3 0,2.3 1.1,4 7.9,8.2 6.9,4.3 10.5,8.1 10.5,14.6 l 0,0.1 C 49.5,59.9 43,65.6 34.7,65.6 29.9,65.5 24.5,63.8 19.6,59 Z"
           id="path4139"
           inkscape:connector-curvature="0"
           style="fill:#ffffff" />
        <path
           d="m 54.4,48.2 0,-32.2 9.4,0 0,32.7 c 0,5.7 2.5,8.3 6.2,8.3 3.8,0 6.2,-2.6 6.2,-8.3 l 0,-32.7 9.3,0 0,32.1 c 0,12 -6.3,17.6 -15.6,17.6 -9.2,0 -15.5,-5.7 -15.5,-17.5 z"
           id="path4141"
           inkscape:connector-curvature="0"
           style="fill:#ffffff" />
        <path
           d="m 91.4,41.3 0,-1.6 c 0,-15.5 7.3,-24.5 17.9,-24.5 10.6,0 17.8,9 17.8,24.4 l 0,1.6 c 0,15.4 -7.3,24.5 -17.9,24.5 -10.6,0.1 -17.8,-9 -17.8,-24.4 z m 26,-0.3 0,-0.9 c 0,-11.1 -3.6,-16.2 -8.3,-16.2 -4.7,0 -8.1,5 -8.1,16.1 l 0,0.9 c 0,11.1 3.6,16.2 8.3,16.2 4.7,0 8.1,-5.1 8.1,-16.1 z"
           id="path4143"
           inkscape:connector-curvature="0"
           style="fill:#ffffff" />
        <path
           d="m 133.3,16 9.6,0 8.6,19 8.5,-19 9.7,0 0,49 -9.2,0 0,-30.5 -9,19.5 -0.1,0 -9,-19.3 0,30.3 -9,0 0,-49 z"
           id="path4145"
           inkscape:connector-curvature="0"
           style="fill:#ffffff" />
        <path
           d="m 177.5,16 9.3,0 0,49 -9.3,0 0,-49 z"
           id="path4147"
           inkscape:connector-curvature="0"
           style="fill:#ffffff" />
        <path
           d="m 194.2,54.7 10.3,0 0,10.3 -10.3,0 0,-10.3 z"
           id="path4149"
           inkscape:connector-curvature="0"
           style="fill:#ffffff" />
        <path
           d="m 211.6,16 25.1,0 0,8.8 -15.7,0 0,11.6 13.7,0 0,8.8 -13.7,0 0,19.8 -9.4,0 0,-49 z"
           id="path4151"
           inkscape:connector-curvature="0"
           style="fill:#ffffff" />
        <path
           d="m 242.6,16 9.3,0 0,49 -9.3,0 0,-49 z"
           id="path4153"
           inkscape:connector-curvature="0"
           style="fill:#ffffff" />
      </g>
      <g
         id="ptv">
        <path
           d="m 23.9,82.1 16.9,0 c 14.2,0 23.5,8 23.5,23.1 l 0,0.2 c 0,15.5 -9.9,23.1 -23.1,23.7 l -4.3,0 0,21 -13,0 0,-68 z m 16.4,35.1 c 7.2,0 10.9,-4.7 10.9,-11.5 0,-7.5 -3.4,-11.6 -10.8,-11.6 l -3.5,0 0,23.2 3.4,0 z"
           id="path4156"
           inkscape:connector-curvature="0"
           style="fill:#ffffff" />
        <path
           d="m 81.3,81.8 13.1,0 18.9,68.2 -13.3,0 -3.7,-14.2 -17.4,0 -3.6,14.2 -12.8,0 18.8,-68.2 z m 11.9,42.5 -5.5,-22.3 -5.7,22.3 11.2,0 z"
           id="path4158"
           inkscape:connector-curvature="0"
           style="fill:#ffffff" />
        <path
           d="m 119.4,82.1 13,0 0,55.8 20.4,0 0,12.1 -33.4,0 0,-67.9 z"
           id="path4160"
           inkscape:connector-curvature="0"
           style="fill:#ffffff" />
        <path
           d="m 149.4,82.1 13.7,0 10.6,45.6 10.6,-45.6 13.3,0 -17.8,68.2 -12.6,0 -17.8,-68.2 z"
           id="path4162"
           inkscape:connector-curvature="0"
           style="fill:#ffffff" />
        <path
           d="m 203.7,82.1 35.3,0 0,12 -22.4,0 0,15.7 19.8,0 0,12 -19.8,0 0,16.2 22.8,0 0,12 -35.7,0 0,-67.9 z"
           id="path4164"
           inkscape:connector-curvature="0"
           style="fill:#ffffff" />
        <path
           d="m 247.9,82.1 13,0 0,55.8 20.4,0 0,12.1 -33.4,0 0,-67.9 z"
           id="path4166"
           inkscape:connector-curvature="0"
           style="fill:#ffffff" />
        <path
           d="m 286.6,126.7 0,-44.6 13,0 0,45.3 c 0,7.9 3.4,11.5 8.6,11.5 5.2,0 8.6,-3.6 8.6,-11.4 l 0,-45.4 12.9,0 0,44.5 c 0,16.6 -8.7,24.3 -21.6,24.3 -12.8,0.1 -21.5,-7.8 -21.5,-24.2 z"
           id="path4168"
           inkscape:connector-curvature="0"
           style="fill:#ffffff" />
        <path
           d="m 349.5,94.3 -12.9,0 0,-12.2 38.8,0 0,12.2 -12.9,0 0,55.7 -13,0 0,-55.7 z"
           id="path4170"
           inkscape:connector-curvature="0"
           style="fill:#ffffff" />
        <path
           d="m 383.2,82.1 12.9,0 0,67.9 -12.9,0 0,-67.9 z"
           id="path4172"
           inkscape:connector-curvature="0"
           style="fill:#ffffff" />
        <path
           d="m 406.9,82.1 35.3,0 0,12 -22.4,0 0,15.7 19.8,0 0,12 -19.8,0 0,16.2 22.8,0 0,12 -35.7,0 0,-67.9 z"
           id="path4174"
           inkscape:connector-curvature="0"
           style="fill:#ffffff" />
        <path
           d="m 461,94.3 -12.9,0 0,-12.2 38.8,0 0,12.2 -12.9,0 0,55.7 -13,0 0,-55.7 z"
           id="path4176"
           inkscape:connector-curvature="0"
           style="fill:#ffffff" />
        <path
           d="m 490.1,117.2 0,-2.2 c 0,-21.4 10.1,-33.9 24.7,-33.9 14.6,0 24.6,12.5 24.6,33.9 l 0,2.2 c 0,21.3 -10.1,33.9 -24.7,33.9 -14.7,0 -24.6,-12.5 -24.6,-33.9 z m 36,-0.5 0,-1.3 c 0,-15.3 -4.9,-22.5 -11.4,-22.5 -6.5,0 -11.3,7.1 -11.3,22.4 l 0,1.3 c 0,15.3 4.9,22.5 11.4,22.5 6.5,0 11.3,-7 11.3,-22.4 z"
           id="path4178"
           inkscape:connector-curvature="0"
           style="fill:#ffffff" />
        <path
           d="m 541.6,82.1 13.7,0 10.6,45.6 10.6,-45.6 13.3,0 -17.8,68.2 -12.6,0 -17.8,-68.2 z"
           id="path4180"
           inkscape:connector-curvature="0"
           style="fill:#ffffff" />
        <path
           d="m 605.6,81.8 13.1,0 18.9,68.2 -13.3,0 -3.7,-14.2 -17.5,0 -3.6,14.2 -12.8,0 18.9,-68.2 z m 11.9,42.5 -5.5,-22.3 -5.7,22.3 11.2,0 z"
           id="path4182"
           inkscape:connector-curvature="0"
           style="fill:#ffffff" />
        <path
           d="m 643.7,82.1 19.2,0 c 7.1,0 13,2 17,6 3.6,3.6 5.6,8.9 5.6,15.9 l 0,0.6 c 0,9.7 -4.4,15.7 -10.4,19.1 l 11.9,26.3 -14.5,0 -10.2,-23 -5.7,0 0,23 -13,0 0,-67.9 z m 18.1,33.4 c 7.1,0 10.7,-4.3 10.7,-10.8 0,-7.2 -3.9,-10.7 -11,-10.7 l -4.8,0 0,21.4 5.1,0 z"
           id="path4184"
           inkscape:connector-curvature="0"
           style="fill:#ffffff" />
        <path
           d="m 708.5,81.8 13.1,0 18.9,68.2 -13.3,0 -3.7,-14.2 -17.5,0 -3.6,14.2 -12.8,0 18.9,-68.2 z m 11.9,42.5 -5.5,-22.3 -5.7,22.3 11.2,0 z"
           id="path4186"
           inkscape:connector-curvature="0"
           style="fill:#ffffff" />
        <path
           d="m 746.6,82.1 12,0 19.3,37.1 0,-37.1 12.7,0 0,67.9 -11.3,0 -20.1,-38.6 0,38.6 -12.7,0 0,-67.9 z"
           id="path4188"
           inkscape:connector-curvature="0"
           style="fill:#ffffff" />
        <path
           d="m 810.9,94.3 -12.9,0 0,-12.2 38.8,0 0,12.2 -12.9,0 0,55.7 -13,0 0,-55.7 z"
           id="path4190"
           inkscape:connector-curvature="0"
           style="fill:#ffffff" />
        <path
           d="m 840,117.2 0,-2.2 c 0,-21.4 10.1,-33.9 24.7,-33.9 14.6,0 24.6,12.5 24.6,33.9 l 0,2.2 c 0,21.3 -10.1,33.9 -24.7,33.9 -14.6,0 -24.6,-12.5 -24.6,-33.9 z m 36.1,-0.5 0,-1.3 c 0,-15.3 -4.9,-22.5 -11.4,-22.5 -6.5,0 -11.3,7.1 -11.3,22.4 l 0,1.3 c 0,15.3 4.9,22.5 11.4,22.5 6.5,0 11.3,-7 11.3,-22.4 z"
           id="path4192"
           inkscape:connector-curvature="0"
           style="fill:#ffffff" />
      </g>
    </g>
  </g>
</svg>
