<svg version="1" xmlns="http://www.w3.org/2000/svg" width="933.333" height="933.333" viewBox="0 0 700.000000 700.000000"><path d="M11.9 2.8c-3.9 2-6.2 4.1-8.4 7.7l-3 4.8v669.4l3 4.8c2.2 3.6 4.5 5.7 8.4 7.7l5.3 2.8h665.6l5.3-2.8c3.9-2 6.2-4.1 8.4-7.7l3-4.8V15.3l-3-4.8c-2.2-3.6-4.5-5.7-8.4-7.7L682.8 0H17.2l-5.3 2.8zM263 218.5V262h-88v-32.8c0-37.6.3-39.6 7.5-46.7 7.1-7.1 8.5-7.3 46.8-7.4l33.7-.1v43.5zM518.7 177c6.3 3.8 6.3 3.9 6.3 46.5V262H350v-87h82.8c80.3 0 82.8.1 85.9 2zM262.8 433.3c-.3 78.7-.4 83.4-2.1 86.1-3.5 5.3-5.6 5.6-42.5 5.6-33.6 0-33.9 0-37.3-2.3-1.8-1.2-3.9-3.4-4.6-4.7-1-1.9-1.3-21.1-1.3-85.3V350h88.1l-.3 83.3zM525 388.6c0 42.3-.1 43.3-5.9 46.7-2.7 1.6-9.5 1.7-86 1.7H350v-87h175v38.6z"/></svg>