<?xml version="1.0" encoding="UTF-8" standalone="no"?>
<svg
   xmlns:dc="http://purl.org/dc/elements/1.1/"
   xmlns:cc="http://creativecommons.org/ns#"
   xmlns:rdf="http://www.w3.org/1999/02/22-rdf-syntax-ns#"
   xmlns:svg="http://www.w3.org/2000/svg"
   xmlns="http://www.w3.org/2000/svg"
   xmlns:sodipodi="http://sodipodi.sourceforge.net/DTD/sodipodi-0.dtd"
   xmlns:inkscape="http://www.inkscape.org/namespaces/inkscape"
   width="121px"
   height="17px"
   viewBox="43 8 121 17"
   version="1.1"
   id="svg20"
   sodipodi:docname="logo-inverse.svg"
   inkscape:version="0.92.0 r15299">
  <metadata
     id="metadata24">
    <rdf:RDF>
      <cc:Work
         rdf:about="">
        <dc:format>image/svg+xml</dc:format>
        <dc:type
           rdf:resource="http://purl.org/dc/dcmitype/StillImage" />
        <dc:title></dc:title>
      </cc:Work>
    </rdf:RDF>
  </metadata>
  <sodipodi:namedview
     pagecolor="#ffffff"
     bordercolor="#666666"
     borderopacity="1"
     objecttolerance="10"
     gridtolerance="10"
     guidetolerance="10"
     inkscape:pageopacity="0"
     inkscape:pageshadow="2"
     inkscape:window-width="1920"
     inkscape:window-height="1137"
     id="namedview22"
     showgrid="false"
     inkscape:zoom="2.3471074"
     inkscape:cx="60.5"
     inkscape:cy="8.5"
     inkscape:window-x="-8"
     inkscape:window-y="-8"
     inkscape:window-maximized="1"
     inkscape:current-layer="svg20" />
  <defs
     id="defs2" />
  <g
     id="text"
     stroke="none"
     fill-rule="evenodd"
     transform="translate(44.000000, 8.000000)"
     style="fill:#ffffff;fill-opacity:1">
    <path
       d="M3.7388,3.2501 L1.9748,3.2501 L1.9748,8.3751 L3.6128,8.3751 C5.5868,8.3751 6.7628,7.5561 6.7628,5.7501 C6.7628,4.0901 5.7128,3.2501 3.7388,3.2501 L3.7388,3.2501 Z M-0.0002,1.5071 L3.8438,1.5071 C6.9098,1.5071 8.7588,2.9981 8.7588,5.6871 C8.7588,8.6481 6.6578,10.1181 3.5078,10.1181 L1.9748,10.1181 L1.9748,16.0001 L-0.0002,16.0001 L-0.0002,1.5071 Z"
       id="Fill-11"
       style="fill:#ffffff;fill-opacity:1" />
    <path
       d="M16.2759,10.9166 C12.5789,11.2736 11.8019,12.2816 11.8019,13.3116 C11.8019,14.1296 12.3479,14.6556 13.2939,14.6556 C14.3859,14.6556 15.4359,14.1086 16.2759,13.2486 L16.2759,10.9166 Z M16.6329,15.9996 L16.4229,14.6556 C15.6249,15.4746 14.5329,16.2096 12.8949,16.2096 C11.0879,16.2096 9.9539,15.1176 9.9539,13.4166 C9.9539,10.9166 12.0959,9.9296 16.2759,9.4886 L16.2759,9.0686 C16.2759,7.8086 15.5199,7.3666 14.3649,7.3666 C13.1469,7.3666 11.9909,7.7456 10.8989,8.2286 L10.6469,6.6106 C11.8439,6.1276 12.9789,5.7706 14.5329,5.7706 C16.9689,5.7706 18.1449,6.7576 18.1449,8.9846 L18.1449,15.9996 L16.6329,15.9996 Z"
       id="Fill-13"
       style="fill:#ffffff;fill-opacity:1" />
    <polygon
       id="Fill-15"
       points="20.7686 15.9996 20.7686 1.1286 22.6386 0.8346 22.6386 15.9996"
       style="fill:#ffffff;fill-opacity:1" />
    <polygon
       id="Fill-17"
       points="29.6943 16.0626 27.8673 16.0626 24.3383 6.1276 26.2503 5.8336 28.8123 13.7516 31.2903 5.9806 33.2443 5.9806"
       style="fill:#ffffff;fill-opacity:1" />
    <path
       d="M36.1616,9.7823 L40.9926,9.7823 C40.7616,8.1653 40.0476,7.2403 38.5986,7.2403 C37.4426,7.2403 36.4556,8.0813 36.1616,9.7823 M38.8496,16.2093 C36.2456,16.2093 34.2086,14.6343 34.2086,10.9583 C34.2086,7.7453 36.0986,5.7703 38.6196,5.7703 C41.5386,5.7703 42.8826,8.0183 42.8826,10.7903 L42.8826,11.1893 L36.0776,11.1893 C36.1616,13.5213 37.2536,14.6133 38.9966,14.6133 C40.4466,14.6133 41.4966,14.0463 42.5886,13.1853 L42.8616,14.8653 C41.7906,15.7053 40.5096,16.2093 38.8496,16.2093"
       id="Fill-19"
       style="fill:#ffffff;fill-opacity:1" />
    <polygon
       id="Fill-21"
       points="44.9814 15.9996 44.9814 1.1286 46.8504 0.8346 46.8504 15.9996"
       style="fill:#ffffff;fill-opacity:1" />
    <path
       d="M51.3447,5.9806 L51.3447,12.8066 C51.3447,13.8356 51.7857,14.5296 52.8777,14.5296 C53.8657,14.5296 54.8727,13.8776 55.7767,12.9116 L55.7767,5.9806 L57.6457,5.9806 L57.6457,15.9996 L56.1547,15.9996 L55.9237,14.5506 C54.9777,15.4326 53.7817,16.2096 52.3737,16.2096 C50.4627,16.2096 49.4747,15.0756 49.4747,13.2696 L49.4747,5.9806 L51.3447,5.9806 Z"
       id="Fill-23"
       style="fill:#ffffff;fill-opacity:1" />
    <path
       d="M66.4653,15.9996 L66.4653,9.1736 C66.4653,8.1446 66.0243,7.4506 64.9323,7.4506 C63.9443,7.4506 62.9363,8.1026 62.0333,9.0686 L62.0333,15.9996 L60.1643,15.9996 L60.1643,1.1286 L62.0333,0.8346 L62.0333,7.3036 C62.8523,6.5686 64.0073,5.7706 65.4363,5.7706 C67.3263,5.7706 68.3343,6.9046 68.3343,8.7106 L68.3343,15.9996 L66.4653,15.9996 Z"
       id="Fill-25"
       style="fill:#ffffff;fill-opacity:1" />
    <path
       d="M76.5239,10.9166 C72.8269,11.2736 72.0499,12.2816 72.0499,13.3116 C72.0499,14.1296 72.5959,14.6556 73.5419,14.6556 C74.6339,14.6556 75.6839,14.1086 76.5239,13.2486 L76.5239,10.9166 Z M76.8809,15.9996 L76.6709,14.6556 C75.8729,15.4746 74.7809,16.2096 73.1429,16.2096 C71.3359,16.2096 70.2019,15.1176 70.2019,13.4166 C70.2019,10.9166 72.3439,9.9296 76.5239,9.4886 L76.5239,9.0686 C76.5239,7.8086 75.7679,7.3666 74.6129,7.3666 C73.3949,7.3666 72.2389,7.7456 71.1469,8.2286 L70.8949,6.6106 C72.0919,6.1276 73.2269,5.7706 74.7809,5.7706 C77.2169,5.7706 78.3929,6.7576 78.3929,8.9846 L78.3929,15.9996 L76.8809,15.9996 Z"
       id="Fill-27"
       style="fill:#ffffff;fill-opacity:1" />
    <polygon
       id="Fill-29"
       points="81.0166 15.9996 81.0166 1.1286 82.8866 0.8346 82.8866 15.9996"
       style="fill:#ffffff;fill-opacity:1" />
    <polygon
       id="Fill-31"
       points="85.6997 15.9996 85.6997 1.1286 87.5687 0.8346 87.5687 15.9996"
       style="fill:#ffffff;fill-opacity:1" />
    <path
       d="M90.383,16 L92.252,16 L92.252,5.981 L90.383,5.981 L90.383,16 Z M91.328,3.873 C90.677,3.873 90.131,3.348 90.131,2.697 C90.131,2.046 90.677,1.5 91.328,1.5 C91.979,1.5 92.504,2.046 92.504,2.697 C92.504,3.348 91.979,3.873 91.328,3.873 L91.328,3.873 Z"
       id="Fill-33"
       style="fill:#ffffff;fill-opacity:1" />
    <path
       d="M101.2197,15.9996 L101.2197,9.1736 C101.2197,8.1446 100.7787,7.4506 99.6867,7.4506 C98.6987,7.4506 97.6907,8.1026 96.7877,9.0686 L96.7877,15.9996 L94.9187,15.9996 L94.9187,5.9806 L96.4097,5.9806 L96.6407,7.4296 C97.5857,6.5686 98.7617,5.7706 100.1907,5.7706 C102.0807,5.7706 103.0897,6.9046 103.0897,8.7106 L103.0897,15.9996 L101.2197,15.9996 Z"
       id="Fill-35"
       style="fill:#ffffff;fill-opacity:1" />
    <path
       d="M108.9683,16.1676 C107.2033,16.1676 106.0483,15.5376 106.0483,13.5216 L106.0483,7.5556 L104.5363,7.5556 L104.5363,5.9806 L106.0483,5.9806 L106.0483,2.6416 L107.8763,2.3686 L107.8763,5.9806 L110.0393,5.9806 L110.2913,7.5556 L107.8763,7.5556 L107.8763,13.1856 C107.8763,14.0036 108.2123,14.5086 109.2623,14.5086 C109.5983,14.5086 109.8923,14.4876 110.1233,14.4456 L110.3753,16.0416 C110.0603,16.1046 109.6193,16.1676 108.9683,16.1676"
       id="Fill-36"
       style="fill:#ffffff;fill-opacity:1" />
    <path
       d="M117.9351,10.9166 C114.2391,11.2736 113.4611,12.2816 113.4611,13.3116 C113.4611,14.1296 114.0071,14.6556 114.9531,14.6556 C116.0451,14.6556 117.0951,14.1086 117.9351,13.2486 L117.9351,10.9166 Z M118.2921,15.9996 L118.0821,14.6556 C117.2841,15.4746 116.1921,16.2096 114.5541,16.2096 C112.7471,16.2096 111.6131,15.1176 111.6131,13.4166 C111.6131,10.9166 113.7551,9.9296 117.9351,9.4886 L117.9351,9.0686 C117.9351,7.8086 117.1791,7.3666 116.0241,7.3666 C114.8061,7.3666 113.6501,7.7456 112.5581,8.2286 L112.3061,6.6106 C113.5031,6.1276 114.6381,5.7706 116.1921,5.7706 C118.6281,5.7706 119.8051,6.7576 119.8051,8.9846 L119.8051,15.9996 L118.2921,15.9996 Z"
       id="Fill-37"
       style="fill:#ffffff;fill-opacity:1" />
  </g>
</svg>
